<svg width="187" height="20" viewBox="0 0 187 20" fill="none" xmlns="http://www.w3.org/2000/svg">
<path d="M22.3706 10C21.9093 10 21.4481 9.90664 21.0885 9.71992L16.0206 7.08359C15.7887 6.96328 15.248 6.61133 15.248 5.94688C15.248 5.28242 15.7887 4.93125 16.0213 4.80938L21.1331 2.15039C21.8374 1.7832 22.9003 1.7832 23.6051 2.15039L28.7199 4.80938C28.9525 4.93008 29.4932 5.28203 29.4932 5.94688C29.4932 6.61172 28.9525 6.9625 28.7199 7.08398L23.652 9.71992C23.2931 9.90664 22.8319 10 22.3706 10Z" fill="white"/>
<path d="M28.7179 8.85977L28.2012 8.59375L26.8736 9.28672L23.6547 10.9664C23.2952 11.1539 22.8329 11.2473 22.3727 11.2473C21.9124 11.2473 21.4505 11.1539 21.0913 10.9664L17.87 9.28672L16.5421 8.59375L16.0209 8.86094C15.7887 8.98164 15.248 9.33594 15.248 10C15.248 10.6641 15.7887 11.0188 16.0206 11.1395L21.0885 13.7812C21.446 13.9687 21.908 14.0625 22.3706 14.0625C22.8332 14.0625 23.2931 13.9687 23.6527 13.7816L28.7162 11.1406C28.9494 11.0199 29.4932 10.6676 29.4932 10C29.4932 9.33242 28.9531 8.98164 28.7179 8.85977Z" fill="#2562EB"/>
<path d="M28.7179 12.9219L28.2012 12.6562L26.8736 13.3488L23.6547 15.0266C23.2952 15.2133 22.8329 15.307 22.3727 15.307C21.9124 15.307 21.4505 15.2137 21.0913 15.0266L17.87 13.3469L16.5421 12.6562L16.0209 12.9234C15.7887 13.0441 15.248 13.3984 15.248 14.0625C15.248 14.7266 15.7887 15.0809 16.0206 15.2012L21.0885 17.8414C21.446 18.0281 21.9097 18.125 22.3706 18.125C22.8315 18.125 23.2911 18.0281 23.6506 17.841L28.7158 15.2016C28.9494 15.0813 29.4932 14.7289 29.4932 14.0625C29.4932 13.3961 28.9531 13.0441 28.7179 12.9219Z" fill="white"/>
<path d="M39.0474 17.1279C38.6587 17.7735 37.7228 17.7735 37.334 17.1279L36.4856 15.7188C36.0843 15.0523 36.5643 14.203 37.3423 14.203L39.0392 14.203C39.8172 14.203 40.2972 15.0523 39.8959 15.7188L39.0474 17.1279Z" fill="#2562EB"/>
<path d="M86.5064 17.1279C86.1177 17.7735 85.1817 17.7735 84.793 17.1279L83.9446 15.7188C83.5433 15.0523 84.0233 14.203 84.8013 14.203L86.4982 14.203C87.2762 14.203 87.7562 15.0523 87.3549 15.7188L86.5064 17.1279Z" fill="#2562EB"/>
<path d="M116.328 17.1279C115.939 17.7735 115.003 17.7735 114.615 17.1279L113.766 15.7188C113.365 15.0523 113.845 14.203 114.623 14.203L116.32 14.203C117.098 14.203 117.578 15.0523 117.176 15.7188L116.328 17.1279Z" fill="#2562EB"/>
<path d="M7.9561 18.342C5.24764 18.342 3.24048 17.6696 1.93461 16.3246C0.644872 14.9643 0 12.8541 0 9.99421C0 7.22706 0.677115 5.16329 2.03134 3.8029C3.38557 2.42706 5.4008 1.73914 8.07701 1.73914C8.46393 1.73914 8.85892 1.76232 9.26196 1.8087C9.68113 1.83962 10.0922 1.89372 10.4953 1.97102C10.8983 2.04831 11.2691 2.14107 11.6077 2.24928C11.9624 2.35749 12.2606 2.48116 12.5024 2.62029C12.6959 2.72851 12.8491 2.84445 12.9619 2.96812C13.0748 3.09179 13.1312 3.22319 13.1312 3.36232C13.1312 3.51691 13.0828 3.71788 12.9861 3.96522C12.9055 4.19711 12.7926 4.42899 12.6475 4.66087C12.5186 4.89276 12.3735 5.086 12.2122 5.24058C12.051 5.39517 11.8979 5.47247 11.7528 5.47247C11.5593 5.47247 11.3497 5.44155 11.124 5.37972C10.8983 5.30242 10.6404 5.22513 10.3502 5.14783C10.06 5.05508 9.72143 4.97778 9.33451 4.91595C8.96371 4.83865 8.52036 4.8 8.00446 4.8C6.58575 4.8 5.52977 5.23286 4.83653 6.09856C4.15942 6.96426 3.82086 8.27054 3.82086 10.0174C3.82086 11.3314 3.97402 12.3749 4.28033 13.1478C4.58665 13.9208 5.04612 14.4773 5.65874 14.8174C6.27137 15.142 7.03716 15.3044 7.9561 15.3044C8.39139 15.3044 8.81861 15.2734 9.23778 15.2116C9.65695 15.1498 10.0439 15.0647 10.3985 14.9565C10.7693 14.8483 11.0595 14.7324 11.2691 14.6087L10.0842 16.3246V11.6406H7.59336C7.10971 11.6406 6.86788 11.2541 6.86788 10.4812V9.8087C6.86788 9.03575 7.10971 8.64928 7.59336 8.64928H12.7685C13.365 8.64928 13.6632 8.95846 13.6632 9.57682V16.487C13.6632 16.6879 13.5987 16.8734 13.4697 17.0435C13.3569 17.1981 13.1715 17.3372 12.9135 17.4609C12.5911 17.6309 12.1558 17.7855 11.6077 17.9246C11.0595 18.0483 10.463 18.1488 9.81816 18.2261C9.18941 18.3034 8.56873 18.342 7.9561 18.342Z" fill="white"/>
<path d="M32.3141 18.203C31.8143 18.203 31.4435 18.1566 31.2017 18.0638C30.9598 17.9711 30.8389 17.8474 30.8389 17.6928C30.8389 17.631 30.847 17.5692 30.8631 17.5073C30.8954 17.43 30.9195 17.3527 30.9357 17.2754L36.2558 2.36529C36.3203 2.19524 36.4654 2.07157 36.6911 1.99428C36.9168 1.91698 37.2312 1.87833 37.6343 1.87833H38.8918C39.311 1.87833 39.6253 1.91698 39.8349 1.99428C40.0606 2.07157 40.2057 2.19524 40.2702 2.36529L45.5904 17.2754C45.6226 17.3527 45.6388 17.43 45.6388 17.5073C45.6549 17.5692 45.6629 17.631 45.6629 17.6928C45.6629 17.8474 45.5662 17.9711 45.3727 18.0638C45.1793 18.1566 44.873 18.203 44.4538 18.203H43.3898C43.0351 18.203 42.7368 18.1721 42.495 18.1102C42.2532 18.0329 42.1 17.9015 42.0355 17.716L38.65 7.69862C38.5693 7.45128 38.4968 7.20394 38.4323 6.95659C38.3839 6.70925 38.3355 6.46191 38.2872 6.21457H38.1905C38.1421 6.46191 38.0857 6.70925 38.0212 6.95659C37.9728 7.20394 37.9083 7.45128 37.8277 7.69862L34.3938 17.716C34.3293 17.8861 34.2003 18.0097 34.0069 18.087C33.8134 18.1643 33.5716 18.203 33.2814 18.203H32.3141Z" fill="white"/>
<path d="M48.6926 18.203C48.1928 18.203 47.822 18.1411 47.5802 18.0175C47.3545 17.8783 47.2416 17.6851 47.2416 17.4378V2.85225C47.2416 2.23389 47.5399 1.92471 48.1364 1.92471H52.9245C55.0526 1.92471 56.6003 2.32664 57.5676 3.13051C58.551 3.93437 59.0428 5.0706 59.0428 6.5392C59.0428 7.20394 58.938 7.79138 58.7284 8.30152C58.5349 8.81167 58.2367 9.24452 57.8336 9.60007C57.4467 9.95563 56.955 10.2339 56.3585 10.4349V10.5276C56.6326 10.6204 56.9066 10.8213 57.1807 11.1305C57.4709 11.4397 57.6966 11.7952 57.8578 12.1972L59.8166 16.8812C59.8972 17.0513 59.9536 17.2059 59.9859 17.345C60.0342 17.4841 60.0584 17.6001 60.0584 17.6928C60.0584 17.8938 59.9536 18.0329 59.7441 18.1102C59.5345 18.1721 59.1717 18.203 58.6558 18.203H57.6643C57.3097 18.203 57.0034 18.1643 56.7454 18.087C56.5036 17.9943 56.3182 17.801 56.1892 17.5073L54.3755 13.287C54.2465 12.9624 54.0853 12.6996 53.8918 12.4986C53.7145 12.2977 53.4727 12.1508 53.1664 12.058C52.86 11.9498 52.4409 11.8957 51.9089 11.8957H50.9899V17.4378C50.9899 17.6851 50.8771 17.8783 50.6514 18.0175C50.4257 18.1411 50.0549 18.203 49.539 18.203H48.6926ZM50.9899 9.08993H53.118C53.8596 9.08993 54.3916 8.92761 54.7141 8.60297C55.0526 8.27833 55.2219 7.75273 55.2219 7.02616C55.2219 6.29959 55.0526 5.77399 54.7141 5.44935C54.3916 5.12471 53.8596 4.96239 53.118 4.96239H50.9899V9.08993Z" fill="white"/>
<path d="M66.5962 18.3421C65.7902 18.3421 65.0647 18.2803 64.4198 18.1566C63.7911 18.0484 63.251 17.9015 62.7996 17.716C62.3482 17.5305 61.9774 17.3527 61.6872 17.1827C61.4615 17.0436 61.2761 16.9122 61.131 16.7885C60.9859 16.6494 60.9133 16.487 60.9133 16.3015C60.9133 16.116 60.9375 15.9073 60.9859 15.6754C61.0504 15.4281 61.131 15.1885 61.2277 14.9566C61.3405 14.7247 61.4534 14.5315 61.5663 14.3769C61.6952 14.2223 61.8242 14.145 61.9532 14.145C62.0983 14.145 62.3804 14.2455 62.7996 14.4465C63.2349 14.632 63.7427 14.8252 64.3231 15.0262C64.9196 15.2117 65.5403 15.3044 66.1851 15.3044C66.6527 15.3044 67.0315 15.2503 67.3217 15.1421C67.628 15.0339 67.8537 14.8638 67.9988 14.632C68.1601 14.4001 68.2407 14.1064 68.2407 13.7508C68.2407 13.3798 68.1278 13.0706 67.9021 12.8233C67.6925 12.5759 67.4104 12.3595 67.0557 12.174C66.701 11.973 66.298 11.7952 65.8466 11.6407C65.4113 11.4706 64.9679 11.2851 64.5165 11.0841C64.0974 10.8986 63.6943 10.6822 63.3074 10.4349C62.9205 10.1875 62.5658 9.88606 62.2434 9.53051C61.9371 9.17495 61.6952 8.7421 61.5179 8.23196C61.3406 7.72181 61.2519 7.11891 61.2519 6.42326C61.2519 5.58848 61.4131 4.87737 61.7355 4.28993C62.0741 3.68703 62.5174 3.20007 63.0656 2.82906C63.6137 2.45804 64.2263 2.18751 64.9035 2.01746C65.5806 1.83196 66.2738 1.7392 66.9832 1.7392C67.4991 1.7392 67.9988 1.77785 68.4825 1.85515C68.9823 1.93244 69.4337 2.04065 69.8367 2.17978C70.2398 2.30345 70.5622 2.45031 70.804 2.62036C70.9814 2.72857 71.1265 2.84452 71.2393 2.96819C71.3522 3.09186 71.4086 3.21553 71.4086 3.3392C71.4086 3.49379 71.3764 3.69476 71.3119 3.9421C71.2635 4.17399 71.191 4.40587 71.0942 4.63775C71.0136 4.86964 70.9088 5.06288 70.7798 5.21746C70.6509 5.37205 70.5138 5.44935 70.3687 5.44935C70.1753 5.44935 69.9173 5.39524 69.5949 5.28703C69.2886 5.16336 68.9178 5.04742 68.4825 4.9392C68.0633 4.81553 67.5877 4.7537 67.0557 4.7537C66.6043 4.7537 66.2254 4.8078 65.9191 4.91601C65.6128 5.02423 65.3791 5.18655 65.2178 5.40297C65.0727 5.60394 65.0002 5.86674 65.0002 6.19138C65.0002 6.57785 65.1211 6.90249 65.3629 7.16529C65.6048 7.41263 65.9272 7.62906 66.3302 7.81457C66.7494 7.98461 67.1928 8.17012 67.6603 8.37109C68.1601 8.57205 68.6679 8.79621 69.1838 9.04355C69.6997 9.29089 70.1753 9.60007 70.6106 9.97109C71.0459 10.3266 71.3925 10.7827 71.6504 11.3392C71.9245 11.8803 72.0615 12.5605 72.0615 13.3798C72.0615 14.2919 71.9003 15.0648 71.5779 15.6986C71.2716 16.3324 70.8524 16.8426 70.3204 17.2291C69.7884 17.6155 69.1999 17.9015 68.555 18.087C67.9102 18.2571 67.2572 18.3421 66.5962 18.3421Z" fill="white"/>
<path d="M79.8058 18.203C79.306 18.203 78.9352 18.1566 78.6934 18.0638C78.4515 17.9711 78.3306 17.8474 78.3306 17.6928C78.3306 17.631 78.3387 17.5692 78.3548 17.5073C78.387 17.43 78.4112 17.3527 78.4273 17.2754L83.7476 2.36529C83.812 2.19524 83.9571 2.07157 84.1828 1.99428C84.4086 1.91698 84.7229 1.87833 85.126 1.87833H86.3835C86.8026 1.87833 87.117 1.91698 87.3266 1.99428C87.5523 2.07157 87.6974 2.19524 87.7619 2.36529L93.0821 17.2754C93.1143 17.3527 93.1304 17.43 93.1304 17.5073C93.1466 17.5692 93.1546 17.631 93.1546 17.6928C93.1546 17.8474 93.0579 17.9711 92.8644 18.0638C92.671 18.1566 92.3647 18.203 91.9455 18.203H90.8814C90.5268 18.203 90.2285 18.1721 89.9867 18.1102C89.7449 18.0329 89.5917 17.9015 89.5272 17.716L86.1416 7.69862C86.061 7.45128 85.9885 7.20394 85.924 6.95659C85.8756 6.70925 85.8273 6.46191 85.7789 6.21457H85.6822C85.6338 6.46191 85.5774 6.70925 85.5129 6.95659C85.4645 7.20394 85.4 7.45128 85.3194 7.69862L81.8855 17.716C81.821 17.8861 81.692 18.0097 81.4986 18.087C81.3051 18.1643 81.0633 18.203 80.7731 18.203H79.8058Z" fill="white"/>
<path d="M102.206 18.3421C99.4973 18.3421 97.4901 17.6696 96.1842 16.3247C94.8945 14.9643 94.2496 12.8542 94.2496 9.99427C94.2496 7.22713 94.9268 5.16336 96.281 3.80297C97.6352 2.42713 99.6504 1.7392 102.327 1.7392C102.843 1.7392 103.375 1.77785 103.923 1.85515C104.487 1.91698 105.019 2.01746 105.519 2.15659C106.019 2.28027 106.43 2.43485 106.752 2.62036C106.946 2.72857 107.099 2.84452 107.212 2.96819C107.324 3.09186 107.381 3.22326 107.381 3.36239C107.381 3.51698 107.341 3.71795 107.26 3.96529C107.195 4.19717 107.107 4.42906 106.994 4.66094C106.881 4.89283 106.752 5.08606 106.607 5.24065C106.462 5.39524 106.317 5.47254 106.172 5.47254C105.978 5.47254 105.704 5.41843 105.349 5.31022C104.995 5.18655 104.56 5.0706 104.044 4.96239C103.544 4.85418 102.947 4.80007 102.254 4.80007C101.303 4.80007 100.513 4.99331 99.8842 5.37978C99.2716 5.76626 98.8121 6.34597 98.5058 7.11891C98.2156 7.89186 98.0705 8.85804 98.0705 10.0175C98.0705 11.1769 98.2237 12.1508 98.53 12.9392C98.8363 13.7122 99.2958 14.2996 99.9084 14.7015C100.521 15.1035 101.287 15.3044 102.206 15.3044C102.786 15.3044 103.31 15.258 103.778 15.1653C104.245 15.0725 104.656 14.9643 105.011 14.8407C105.366 14.717 105.664 14.6088 105.906 14.516C106.148 14.4233 106.325 14.3769 106.438 14.3769C106.631 14.3769 106.8 14.4619 106.946 14.632C107.091 14.802 107.212 15.003 107.308 15.2349C107.405 15.4667 107.478 15.6986 107.526 15.9305C107.574 16.1469 107.598 16.3015 107.598 16.3943C107.598 16.6571 107.534 16.8503 107.405 16.974C107.276 17.0977 107.026 17.26 106.655 17.4609C106.268 17.6619 105.809 17.832 105.277 17.9711C104.761 18.0948 104.229 18.1875 103.681 18.2494C103.149 18.3112 102.657 18.3421 102.206 18.3421Z" fill="white"/>
<path d="M109.609 18.203C109.109 18.203 108.738 18.1566 108.497 18.0638C108.255 17.9711 108.134 17.8474 108.134 17.6928C108.134 17.631 108.142 17.5692 108.158 17.5073C108.19 17.43 108.214 17.3527 108.231 17.2754L113.551 2.36529C113.615 2.19524 113.76 2.07157 113.986 1.99428C114.212 1.91698 114.526 1.87833 114.929 1.87833H116.187C116.606 1.87833 116.92 1.91698 117.13 1.99428C117.356 2.07157 117.501 2.19524 117.565 2.36529L122.885 17.2754C122.918 17.3527 122.934 17.43 122.934 17.5073C122.95 17.5692 122.958 17.631 122.958 17.6928C122.958 17.8474 122.861 17.9711 122.668 18.0638C122.474 18.1566 122.168 18.203 121.749 18.203H120.685C120.33 18.203 120.032 18.1721 119.79 18.1102C119.548 18.0329 119.395 17.9015 119.33 17.716L115.945 7.69862C115.864 7.45128 115.792 7.20394 115.727 6.95659C115.679 6.70925 115.631 6.46191 115.582 6.21457H115.485C115.437 6.46191 115.381 6.70925 115.316 6.95659C115.268 7.20394 115.203 7.45128 115.123 7.69862L111.689 17.716C111.624 17.8861 111.495 18.0097 111.302 18.087C111.108 18.1643 110.867 18.203 110.576 18.203H109.609Z" fill="white"/>
<path d="M125.431 18.1566C124.835 18.1566 124.537 17.8474 124.537 17.2291V2.85225C124.537 2.23389 124.835 1.92471 125.431 1.92471H130.945C133.444 1.92471 135.354 2.62036 136.676 4.01167C138.014 5.40297 138.683 7.41263 138.683 10.0407C138.683 12.6532 138.014 14.6629 136.676 16.0696C135.354 17.4609 133.444 18.1566 130.945 18.1566H125.431ZM128.285 15.1189H130.945C132.235 15.1189 133.21 14.6938 133.871 13.8436C134.532 12.9779 134.863 11.7102 134.863 10.0407C134.863 8.37109 134.532 7.11118 133.871 6.26094C133.21 5.39524 132.235 4.96239 130.945 4.96239H128.285V15.1189Z" fill="white"/>
<path d="M156.003 18.203C155.504 18.203 155.133 18.1411 154.891 18.0175C154.665 17.8783 154.552 17.6851 154.552 17.4378V2.64355C154.552 2.39621 154.665 2.2107 154.891 2.08703C155.133 1.9479 155.504 1.87833 156.003 1.87833H157.285C157.64 1.87833 157.954 1.93244 158.228 2.04065C158.518 2.13341 158.744 2.31891 158.905 2.59717L162.557 8.88123C162.686 9.0822 162.807 9.29862 162.92 9.53051C163.049 9.74693 163.145 9.94017 163.21 10.1102C163.29 9.95563 163.387 9.75466 163.5 9.50732C163.629 9.25998 163.734 9.05901 163.814 8.90442L167.538 2.62036C167.716 2.32664 167.925 2.13341 168.167 2.04065C168.425 1.93244 168.731 1.87833 169.086 1.87833H170.344C170.86 1.87833 171.23 1.9479 171.456 2.08703C171.682 2.2107 171.795 2.39621 171.795 2.64355V17.4609C171.795 17.7083 171.682 17.8938 171.456 18.0175C171.23 18.1411 170.86 18.203 170.344 18.203H169.763C169.263 18.203 168.893 18.1411 168.651 18.0175C168.425 17.8783 168.312 17.6851 168.312 17.4378V8.99717C168.312 8.79621 168.312 8.60297 168.312 8.41746C168.312 8.23196 168.312 8.04645 168.312 7.86094L168.216 7.83775C168.135 7.99234 168.046 8.14693 167.95 8.30152C167.853 8.44065 167.764 8.58751 167.684 8.7421L164.83 13.6812C164.701 13.9131 164.516 14.0754 164.274 14.1682C164.048 14.2455 163.734 14.2841 163.331 14.2841H163.016C162.613 14.2841 162.291 14.2455 162.049 14.1682C161.823 14.0754 161.646 13.9131 161.517 13.6812L158.663 8.7421C158.583 8.58751 158.494 8.44065 158.397 8.30152C158.301 8.14693 158.212 7.99234 158.131 7.83775L158.035 7.86094C158.035 8.04645 158.035 8.23196 158.035 8.41746C158.035 8.60297 158.035 8.79621 158.035 8.99717V17.4378C158.035 17.6851 157.922 17.8783 157.696 18.0175C157.47 18.1411 157.1 18.203 156.584 18.203H156.003Z" fill="white"/>
<path d="M179.721 18.203C179.221 18.203 178.85 18.1411 178.609 18.0175C178.383 17.8938 178.27 17.7083 178.27 17.4609V10.3653L173.458 2.92181C173.393 2.79814 173.345 2.69766 173.313 2.62036C173.264 2.52761 173.24 2.45031 173.24 2.38848C173.24 2.20297 173.361 2.07157 173.603 1.99428C173.861 1.91698 174.248 1.87833 174.764 1.87833H175.803C176.271 1.87833 176.61 1.92471 176.819 2.01746C177.029 2.09476 177.206 2.25708 177.351 2.50442L180.906 8.44065H179.503L183.034 2.50442C183.179 2.25708 183.356 2.09476 183.566 2.01746C183.776 1.92471 184.114 1.87833 184.582 1.87833H185.476C185.992 1.87833 186.371 1.91698 186.613 1.99428C186.871 2.07157 187 2.20297 187 2.38848C187 2.45031 186.984 2.52761 186.952 2.62036C186.919 2.69766 186.863 2.79814 186.782 2.92181L181.994 10.4349V17.4609C181.994 17.7083 181.881 17.8938 181.656 18.0175C181.43 18.1411 181.059 18.203 180.543 18.203H179.721Z" fill="white"/>
<rect x="141.166" y="8.11597" width="5.4411" height="3.47826" rx="1.73913" fill="#2562EB"/>
<rect x="141.166" y="14.7826" width="10.5799" height="3.47826" rx="1.73913" fill="white"/>
<rect x="141.166" y="1.73914" width="10.5799" height="3.47826" rx="1.73913" fill="white"/>
</svg>
