<svg width="187" height="20" viewBox="0 0 187 20" fill="none" xmlns="http://www.w3.org/2000/svg">
<path d="M22.3706 10C21.9093 10 21.4481 9.90664 21.0885 9.71992L16.0206 7.08359C15.7887 6.96328 15.248 6.61133 15.248 5.94688C15.248 5.28242 15.7887 4.93125 16.0213 4.80938L21.1331 2.15039C21.8374 1.7832 22.9003 1.7832 23.6051 2.15039L28.7199 4.80938C28.9525 4.93008 29.4932 5.28203 29.4932 5.94688C29.4932 6.61172 28.9525 6.9625 28.7199 7.08398L23.652 9.71992C23.2931 9.90664 22.8319 10 22.3706 10Z" fill="#353335"/>
<path d="M28.7179 8.85977L28.2012 8.59375L26.8736 9.28672L23.6547 10.9664C23.2952 11.1539 22.8329 11.2473 22.3727 11.2473C21.9124 11.2473 21.4505 11.1539 21.0913 10.9664L17.87 9.28672L16.5421 8.59375L16.0209 8.86094C15.7887 8.98164 15.248 9.33594 15.248 10C15.248 10.6641 15.7887 11.0188 16.0206 11.1395L21.0885 13.7812C21.446 13.9687 21.908 14.0625 22.3706 14.0625C22.8332 14.0625 23.2931 13.9687 23.6527 13.7816L28.7162 11.1406C28.9494 11.0199 29.4932 10.6676 29.4932 10C29.4932 9.33242 28.9531 8.98164 28.7179 8.85977Z" fill="#2563EB"/>
<path d="M28.7179 12.9219L28.2012 12.6562L26.8736 13.3488L23.6547 15.0266C23.2952 15.2133 22.8329 15.307 22.3727 15.307C21.9124 15.307 21.4505 15.2137 21.0913 15.0266L17.87 13.3469L16.5421 12.6562L16.0209 12.9234C15.7887 13.0441 15.248 13.3984 15.248 14.0625C15.248 14.7266 15.7887 15.0809 16.0206 15.2012L21.0885 17.8414C21.446 18.0281 21.9097 18.125 22.3706 18.125C22.8315 18.125 23.2911 18.0281 23.6506 17.841L28.7158 15.2016C28.9494 15.0813 29.4932 14.7289 29.4932 14.0625C29.4932 13.3961 28.9531 13.0441 28.7179 12.9219Z" fill="#353335"/>
<path d="M39.0474 17.1279C38.6587 17.7735 37.7228 17.7735 37.334 17.1279L36.4856 15.7188C36.0843 15.0523 36.5643 14.203 37.3423 14.203L39.0392 14.203C39.8172 14.203 40.2972 15.0523 39.8959 15.7188L39.0474 17.1279Z" fill="#2563EB"/>
<path d="M86.5064 17.1279C86.1177 17.7735 85.1817 17.7735 84.793 17.1279L83.9446 15.7188C83.5433 15.0523 84.0233 14.203 84.8013 14.203L86.4982 14.203C87.2762 14.203 87.7562 15.0523 87.3549 15.7188L86.5064 17.1279Z" fill="#2563EB"/>
<path d="M116.328 17.1279C115.939 17.7735 115.003 17.7735 114.615 17.1279L113.766 15.7188C113.365 15.0523 113.845 14.203 114.623 14.203L116.32 14.203C117.098 14.203 117.578 15.0523 117.176 15.7188L116.328 17.1279Z" fill="#2563EB"/>
<path d="M7.9561 18.3422C5.24764 18.3422 3.24048 17.6697 1.93461 16.3248C0.644872 14.9644 0 12.8542 0 9.99433C0 7.22718 0.677115 5.16341 2.03134 3.80303C3.38557 2.42718 5.4008 1.73926 8.07701 1.73926C8.46393 1.73926 8.85892 1.76245 9.26196 1.80882C9.68113 1.83974 10.0922 1.89385 10.4953 1.97114C10.8983 2.04844 11.2691 2.14119 11.6077 2.2494C11.9624 2.35761 12.2606 2.48129 12.5024 2.62042C12.6959 2.72863 12.8491 2.84457 12.9619 2.96824C13.0748 3.09191 13.1312 3.22332 13.1312 3.36245C13.1312 3.51704 13.0828 3.718 12.9861 3.96534C12.9055 4.19723 12.7926 4.42911 12.6475 4.661C12.5186 4.89288 12.3735 5.08612 12.2122 5.24071C12.051 5.3953 11.8979 5.47259 11.7528 5.47259C11.5593 5.47259 11.3497 5.44167 11.124 5.37984C10.8983 5.30254 10.6404 5.22525 10.3502 5.14795C10.06 5.0552 9.72143 4.9779 9.33451 4.91607C8.96371 4.83877 8.52036 4.80013 8.00446 4.80013C6.58575 4.80013 5.52977 5.23298 4.83653 6.09868C4.15942 6.96438 3.82086 8.27066 3.82086 10.0175C3.82086 11.3315 3.97402 12.375 4.28033 13.148C4.58665 13.9209 5.04612 14.4774 5.65874 14.8175C6.27137 15.1422 7.03716 15.3045 7.9561 15.3045C8.39139 15.3045 8.81861 15.2736 9.23778 15.2117C9.65695 15.1499 10.0439 15.0649 10.3985 14.9566C10.7693 14.8484 11.0595 14.7325 11.2691 14.6088L10.0842 16.3248V11.6407H7.59336C7.10971 11.6407 6.86788 11.2542 6.86788 10.4813V9.80882C6.86788 9.03588 7.10971 8.6494 7.59336 8.6494H12.7685C13.365 8.6494 13.6632 8.95858 13.6632 9.57694V16.4871C13.6632 16.6881 13.5987 16.8736 13.4697 17.0436C13.3569 17.1982 13.1715 17.3373 12.9135 17.461C12.5911 17.631 12.1558 17.7856 11.6077 17.9248C11.0595 18.0484 10.463 18.1489 9.81816 18.2262C9.18941 18.3035 8.56873 18.3422 7.9561 18.3422Z" fill="#353335"/>
<path d="M32.3141 18.2031C31.8143 18.2031 31.4435 18.1567 31.2017 18.064C30.9598 17.9712 30.8389 17.8475 30.8389 17.693C30.8389 17.6311 30.847 17.5693 30.8631 17.5074C30.8954 17.4302 30.9195 17.3529 30.9357 17.2756L36.2558 2.36541C36.3203 2.19536 36.4654 2.07169 36.6911 1.9944C36.9168 1.9171 37.2312 1.87846 37.6343 1.87846H38.8918C39.311 1.87846 39.6253 1.9171 39.8349 1.9944C40.0606 2.07169 40.2057 2.19536 40.2702 2.36541L45.5904 17.2756C45.6226 17.3529 45.6388 17.4302 45.6388 17.5074C45.6549 17.5693 45.6629 17.6311 45.6629 17.693C45.6629 17.8475 45.5662 17.9712 45.3727 18.064C45.1793 18.1567 44.873 18.2031 44.4538 18.2031H43.3898C43.0351 18.2031 42.7368 18.1722 42.495 18.1103C42.2532 18.033 42.1 17.9016 42.0355 17.7161L38.65 7.69874C38.5693 7.4514 38.4968 7.20406 38.4323 6.95672C38.3839 6.70937 38.3355 6.46203 38.2872 6.21469H38.1905C38.1421 6.46203 38.0857 6.70937 38.0212 6.95672C37.9728 7.20406 37.9083 7.4514 37.8277 7.69874L34.3938 17.7161C34.3293 17.8862 34.2003 18.0099 34.0069 18.0872C33.8134 18.1644 33.5716 18.2031 33.2814 18.2031H32.3141Z" fill="#353335"/>
<path d="M48.6926 18.2031C48.1928 18.2031 47.822 18.1413 47.5802 18.0176C47.3545 17.8785 47.2416 17.6852 47.2416 17.4379V2.85237C47.2416 2.23401 47.5399 1.92483 48.1364 1.92483H52.9245C55.0526 1.92483 56.6003 2.32676 57.5676 3.13063C58.551 3.93449 59.0428 5.07073 59.0428 6.53932C59.0428 7.20406 58.938 7.7915 58.7284 8.30164C58.5349 8.81179 58.2367 9.24464 57.8336 9.60019C57.4467 9.95575 56.955 10.234 56.3585 10.435V10.5277C56.6326 10.6205 56.9066 10.8215 57.1807 11.1306C57.4709 11.4398 57.6966 11.7954 57.8578 12.1973L59.8166 16.8814C59.8972 17.0514 59.9536 17.206 59.9859 17.3451C60.0342 17.4843 60.0584 17.6002 60.0584 17.693C60.0584 17.8939 59.9536 18.033 59.7441 18.1103C59.5345 18.1722 59.1717 18.2031 58.6558 18.2031H57.6643C57.3097 18.2031 57.0034 18.1644 56.7454 18.0872C56.5036 17.9944 56.3182 17.8012 56.1892 17.5074L54.3755 13.2872C54.2465 12.9625 54.0853 12.6997 53.8918 12.4987C53.7145 12.2978 53.4727 12.1509 53.1664 12.0582C52.86 11.95 52.4409 11.8959 51.9089 11.8959H50.9899V17.4379C50.9899 17.6852 50.8771 17.8785 50.6514 18.0176C50.4257 18.1413 50.0549 18.2031 49.539 18.2031H48.6926ZM50.9899 9.09005H53.118C53.8596 9.09005 54.3916 8.92773 54.7141 8.60309C55.0526 8.27846 55.2219 7.75285 55.2219 7.02628C55.2219 6.29971 55.0526 5.77411 54.7141 5.44947C54.3916 5.12483 53.8596 4.96251 53.118 4.96251H50.9899V9.09005Z" fill="#353335"/>
<path d="M66.5962 18.3422C65.7902 18.3422 65.0647 18.2804 64.4198 18.1567C63.7911 18.0485 63.251 17.9016 62.7996 17.7161C62.3482 17.5306 61.9774 17.3529 61.6872 17.1828C61.4615 17.0437 61.2761 16.9123 61.131 16.7886C60.9859 16.6495 60.9133 16.4872 60.9133 16.3016C60.9133 16.1161 60.9375 15.9074 60.9859 15.6756C61.0504 15.4282 61.131 15.1886 61.2277 14.9567C61.3405 14.7248 61.4534 14.5316 61.5663 14.377C61.6952 14.2224 61.8242 14.1451 61.9532 14.1451C62.0983 14.1451 62.3804 14.2456 62.7996 14.4466C63.2349 14.6321 63.7427 14.8253 64.3231 15.0263C64.9196 15.2118 65.5403 15.3045 66.1851 15.3045C66.6527 15.3045 67.0315 15.2504 67.3217 15.1422C67.628 15.034 67.8537 14.864 67.9988 14.6321C68.1601 14.4002 68.2407 14.1065 68.2407 13.7509C68.2407 13.3799 68.1278 13.0707 67.9021 12.8234C67.6925 12.576 67.4104 12.3596 67.0557 12.1741C66.701 11.9731 66.298 11.7954 65.8466 11.6408C65.4113 11.4707 64.9679 11.2852 64.5165 11.0843C64.0974 10.8987 63.6943 10.6823 63.3074 10.435C62.9205 10.1876 62.5658 9.88618 62.2434 9.53063C61.9371 9.17507 61.6952 8.74222 61.5179 8.23208C61.3406 7.72193 61.2519 7.11903 61.2519 6.42338C61.2519 5.5886 61.4131 4.87749 61.7355 4.29005C62.0741 3.68715 62.5174 3.20019 63.0656 2.82918C63.6137 2.45816 64.2263 2.18763 64.9035 2.01759C65.5806 1.83208 66.2738 1.73933 66.9832 1.73933C67.4991 1.73933 67.9988 1.77797 68.4825 1.85527C68.9823 1.93256 69.4337 2.04077 69.8367 2.1799C70.2398 2.30358 70.5622 2.45044 70.804 2.62048C70.9814 2.7287 71.1265 2.84464 71.2393 2.96831C71.3522 3.09198 71.4086 3.21565 71.4086 3.33932C71.4086 3.49391 71.3764 3.69488 71.3119 3.94222C71.2635 4.17411 71.191 4.40599 71.0942 4.63788C71.0136 4.86976 70.9088 5.063 70.7798 5.21759C70.6509 5.37218 70.5138 5.44947 70.3687 5.44947C70.1753 5.44947 69.9173 5.39536 69.5949 5.28715C69.2886 5.16348 68.9178 5.04754 68.4825 4.93932C68.0633 4.81565 67.5877 4.75382 67.0557 4.75382C66.6043 4.75382 66.2254 4.80792 65.9191 4.91614C65.6128 5.02435 65.3791 5.18667 65.2178 5.40309C65.0727 5.60406 65.0002 5.86686 65.0002 6.1915C65.0002 6.57797 65.1211 6.90261 65.3629 7.16541C65.6048 7.41275 65.9272 7.62918 66.3302 7.81469C66.7494 7.98474 67.1928 8.17024 67.6603 8.37121C68.1601 8.57218 68.6679 8.79633 69.1838 9.04367C69.6997 9.29102 70.1753 9.60019 70.6106 9.97121C71.0459 10.3268 71.3925 10.7828 71.6504 11.3393C71.9245 11.8804 72.0615 12.5606 72.0615 13.3799C72.0615 14.292 71.9003 15.0649 71.5779 15.6987C71.2716 16.3326 70.8524 16.8427 70.3204 17.2292C69.7884 17.6157 69.1999 17.9016 68.555 18.0872C67.9102 18.2572 67.2572 18.3422 66.5962 18.3422Z" fill="#353335"/>
<path d="M79.8058 18.2031C79.306 18.2031 78.9352 18.1567 78.6934 18.064C78.4515 17.9712 78.3306 17.8475 78.3306 17.693C78.3306 17.6311 78.3387 17.5693 78.3548 17.5074C78.387 17.4302 78.4112 17.3529 78.4273 17.2756L83.7476 2.36541C83.812 2.19536 83.9571 2.07169 84.1828 1.9944C84.4086 1.9171 84.7229 1.87846 85.126 1.87846H86.3835C86.8026 1.87846 87.117 1.9171 87.3266 1.9944C87.5523 2.07169 87.6974 2.19536 87.7619 2.36541L93.0821 17.2756C93.1143 17.3529 93.1304 17.4302 93.1304 17.5074C93.1466 17.5693 93.1546 17.6311 93.1546 17.693C93.1546 17.8475 93.0579 17.9712 92.8644 18.064C92.671 18.1567 92.3647 18.2031 91.9455 18.2031H90.8814C90.5268 18.2031 90.2285 18.1722 89.9867 18.1103C89.7449 18.033 89.5917 17.9016 89.5272 17.7161L86.1416 7.69874C86.061 7.4514 85.9885 7.20406 85.924 6.95672C85.8756 6.70937 85.8273 6.46203 85.7789 6.21469H85.6822C85.6338 6.46203 85.5774 6.70937 85.5129 6.95672C85.4645 7.20406 85.4 7.4514 85.3194 7.69874L81.8855 17.7161C81.821 17.8862 81.692 18.0099 81.4986 18.0872C81.3051 18.1644 81.0633 18.2031 80.7731 18.2031H79.8058Z" fill="#353335"/>
<path d="M102.206 18.3422C99.4973 18.3422 97.4901 17.6698 96.1842 16.3248C94.8945 14.9644 94.2496 12.8543 94.2496 9.9944C94.2496 7.22725 94.9268 5.16348 96.281 3.80309C97.6352 2.42725 99.6504 1.73933 102.327 1.73933C102.843 1.73933 103.375 1.77797 103.923 1.85527C104.487 1.9171 105.019 2.01758 105.519 2.15672C106.019 2.28039 106.43 2.43498 106.752 2.62048C106.946 2.7287 107.099 2.84464 107.212 2.96831C107.324 3.09198 107.381 3.22338 107.381 3.36251C107.381 3.5171 107.341 3.71807 107.26 3.96541C107.195 4.1973 107.107 4.42918 106.994 4.66106C106.881 4.89295 106.752 5.08619 106.607 5.24077C106.462 5.39536 106.317 5.47266 106.172 5.47266C105.978 5.47266 105.704 5.41855 105.349 5.31034C104.995 5.18667 104.56 5.07073 104.044 4.96251C103.544 4.8543 102.947 4.80019 102.254 4.80019C101.303 4.80019 100.513 4.99343 99.8842 5.37991C99.2716 5.76638 98.8121 6.34609 98.5058 7.11904C98.2156 7.89198 98.0705 8.85817 98.0705 10.0176C98.0705 11.177 98.2237 12.1509 98.53 12.9393C98.8363 13.7123 99.2958 14.2997 99.9084 14.7016C100.521 15.1036 101.287 15.3045 102.206 15.3045C102.786 15.3045 103.31 15.2582 103.778 15.1654C104.245 15.0727 104.656 14.9644 105.011 14.8408C105.366 14.7171 105.664 14.6089 105.906 14.5161C106.148 14.4234 106.325 14.377 106.438 14.377C106.631 14.377 106.8 14.462 106.946 14.6321C107.091 14.8021 107.212 15.0031 107.308 15.235C107.405 15.4669 107.478 15.6987 107.526 15.9306C107.574 16.1471 107.598 16.3016 107.598 16.3944C107.598 16.6572 107.534 16.8504 107.405 16.9741C107.276 17.0978 107.026 17.2601 106.655 17.4611C106.268 17.662 105.809 17.8321 105.277 17.9712C104.761 18.0949 104.229 18.1876 103.681 18.2495C103.149 18.3113 102.657 18.3422 102.206 18.3422Z" fill="#353335"/>
<path d="M109.609 18.2031C109.109 18.2031 108.738 18.1567 108.497 18.064C108.255 17.9712 108.134 17.8475 108.134 17.693C108.134 17.6311 108.142 17.5693 108.158 17.5074C108.19 17.4302 108.214 17.3529 108.231 17.2756L113.551 2.36541C113.615 2.19536 113.76 2.07169 113.986 1.9944C114.212 1.9171 114.526 1.87846 114.929 1.87846H116.187C116.606 1.87846 116.92 1.9171 117.13 1.9944C117.356 2.07169 117.501 2.19536 117.565 2.36541L122.885 17.2756C122.918 17.3529 122.934 17.4302 122.934 17.5074C122.95 17.5693 122.958 17.6311 122.958 17.693C122.958 17.8475 122.861 17.9712 122.668 18.064C122.474 18.1567 122.168 18.2031 121.749 18.2031H120.685C120.33 18.2031 120.032 18.1722 119.79 18.1103C119.548 18.033 119.395 17.9016 119.33 17.7161L115.945 7.69874C115.864 7.4514 115.792 7.20406 115.727 6.95672C115.679 6.70937 115.631 6.46203 115.582 6.21469H115.485C115.437 6.46203 115.381 6.70937 115.316 6.95672C115.268 7.20406 115.203 7.4514 115.123 7.69874L111.689 17.7161C111.624 17.8862 111.495 18.0099 111.302 18.0872C111.108 18.1644 110.867 18.2031 110.576 18.2031H109.609Z" fill="#353335"/>
<path d="M125.431 18.1567C124.835 18.1567 124.537 17.8475 124.537 17.2292V2.85237C124.537 2.23401 124.835 1.92483 125.431 1.92483H130.945C133.444 1.92483 135.354 2.62048 136.676 4.01179C138.014 5.40309 138.683 7.41275 138.683 10.0408C138.683 12.6533 138.014 14.663 136.676 16.0698C135.354 17.4611 133.444 18.1567 130.945 18.1567H125.431ZM128.285 15.119H130.945C132.235 15.119 133.21 14.6939 133.871 13.8437C134.532 12.978 134.863 11.7103 134.863 10.0408C134.863 8.37121 134.532 7.11131 133.871 6.26107C133.21 5.39536 132.235 4.96251 130.945 4.96251H128.285V15.119Z" fill="#353335"/>
<path d="M156.003 18.2031C155.504 18.2031 155.133 18.1413 154.891 18.0176C154.665 17.8785 154.552 17.6852 154.552 17.4379V2.64367C154.552 2.39633 154.665 2.21082 154.891 2.08715C155.133 1.94802 155.504 1.87846 156.003 1.87846H157.285C157.64 1.87846 157.954 1.93256 158.228 2.04077C158.518 2.13353 158.744 2.31904 158.905 2.5973L162.557 8.88135C162.686 9.08232 162.807 9.29875 162.92 9.53063C163.049 9.74705 163.145 9.94029 163.21 10.1103C163.29 9.95575 163.387 9.75478 163.5 9.50744C163.629 9.2601 163.734 9.05913 163.814 8.90454L167.538 2.62048C167.716 2.32676 167.925 2.13353 168.167 2.04077C168.425 1.93256 168.731 1.87846 169.086 1.87846H170.344C170.86 1.87846 171.23 1.94802 171.456 2.08715C171.682 2.21082 171.795 2.39633 171.795 2.64367V17.4611C171.795 17.7084 171.682 17.8939 171.456 18.0176C171.23 18.1413 170.86 18.2031 170.344 18.2031H169.763C169.263 18.2031 168.893 18.1413 168.651 18.0176C168.425 17.8785 168.312 17.6852 168.312 17.4379V8.9973C168.312 8.79633 168.312 8.60309 168.312 8.41759C168.312 8.23208 168.312 8.04657 168.312 7.86106L168.216 7.83788C168.135 7.99246 168.046 8.14705 167.95 8.30164C167.853 8.44077 167.764 8.58763 167.684 8.74222L164.83 13.6814C164.701 13.9132 164.516 14.0756 164.274 14.1683C164.048 14.2456 163.734 14.2843 163.331 14.2843H163.016C162.613 14.2843 162.291 14.2456 162.049 14.1683C161.823 14.0756 161.646 13.9132 161.517 13.6814L158.663 8.74222C158.583 8.58763 158.494 8.44077 158.397 8.30164C158.301 8.14705 158.212 7.99246 158.131 7.83788L158.035 7.86106C158.035 8.04657 158.035 8.23208 158.035 8.41759C158.035 8.60309 158.035 8.79633 158.035 8.9973V17.4379C158.035 17.6852 157.922 17.8785 157.696 18.0176C157.47 18.1413 157.1 18.2031 156.584 18.2031H156.003Z" fill="#353335"/>
<path d="M179.721 18.2031C179.221 18.2031 178.85 18.1413 178.609 18.0176C178.383 17.8939 178.27 17.7084 178.27 17.4611V10.3654L173.458 2.92193C173.393 2.79826 173.345 2.69778 173.313 2.62048C173.264 2.52773 173.24 2.45044 173.24 2.3886C173.24 2.20309 173.361 2.07169 173.603 1.9944C173.861 1.9171 174.248 1.87846 174.764 1.87846H175.803C176.271 1.87846 176.61 1.92483 176.819 2.01759C177.029 2.09488 177.206 2.2572 177.351 2.50454L180.906 8.44077H179.503L183.034 2.50454C183.179 2.2572 183.356 2.09488 183.566 2.01759C183.776 1.92483 184.114 1.87846 184.582 1.87846H185.476C185.992 1.87846 186.371 1.9171 186.613 1.9944C186.871 2.07169 187 2.20309 187 2.3886C187 2.45044 186.984 2.52773 186.952 2.62048C186.919 2.69778 186.863 2.79826 186.782 2.92193L181.994 10.435V17.4611C181.994 17.7084 181.881 17.8939 181.656 18.0176C181.43 18.1413 181.059 18.2031 180.543 18.2031H179.721Z" fill="#353335"/>
<rect x="141.166" y="8.11621" width="5.4411" height="3.47826" rx="1.73913" fill="#2563EB"/>
<rect x="141.166" y="14.7827" width="10.5799" height="3.47826" rx="1.73913" fill="#353335"/>
<rect x="141.166" y="1.73926" width="10.5799" height="3.47826" rx="1.73913" fill="#353335"/>
</svg>
